<?xml version="1.0" encoding="iso-8859-1"?>
<!-- Generator: Adobe Illustrator 18.1.1, SVG Export Plug-In . SVG Version: 6.00 Build 0)  -->
<svg version="1.1" id="Capa_1" xmlns="http://www.w3.org/2000/svg" xmlns:xlink="http://www.w3.org/1999/xlink" x="0px" y="0px"
	 viewBox="0 0 276.752 276.752" style="enable-background:new 0 0 276.752 276.752;" xml:space="preserve">
<g style="fill:#fff">
	<path style="fill:#1980B6;" d="M212.071,235.271L40.213,251.996c-5.978,0.577-7.898,5.069-2.899,8.403
		c11.509,7.696,38.318,18.368,97.267,16.023c75.168-2.986,89.663-20.299,90.778-31.808
		C225.941,238.638,218.049,234.694,212.071,235.271z"/>
	<g>
		<path style="fill:#1980B6;" d="M106.57,239.307c-4.46,0-8.099-3.584-8.159-8.055C97.155,131.874,36.515,22.261,35.906,21.162
			c-2.197-3.932-0.794-8.904,3.144-11.101c3.932-2.181,8.898-0.794,11.101,3.144c2.584,4.623,63.267,114.362,64.578,217.845
			C114.788,235.548,111.182,239.247,106.57,239.307z"/>
	</g>
	<g>
		<path style="fill:#1980B6;" d="M109.844,36.228C87.098,19.607,67.311,7.809,56.177,1.571c-5.238-2.937-6.201-1.648-2.361,2.975
			c10.661,12.847,19.793,27.641,27.63,43.382c2.676,5.374,8.479,6.728,13.717,3.791c3.617-2.029,7.919-4.052,12.978-5.863
			C113.798,43.821,114.696,39.775,109.844,36.228z"/>
		<path style="fill:#1980B6;" d="M96.703,83.728c6.239,17.111,11.243,34.446,15.262,50.926c1.42,5.836,6.739,8.229,12.298,5.939
			c12.635-5.216,34.005-11.574,66.966-14.408c5.988-0.517,7.979-4.71,4.259-9.426c-15.849-20.076-33.804-37.992-51.633-53.477
			c-4.536-3.943-13.152-6.565-19.026-5.309c-10.693,2.284-18.302,5.744-23.464,8.887C96.23,69.978,94.653,78.087,96.703,83.728z"/>
		<path style="fill:#1980B6;" d="M218.625,150.53c-3.024-5.194-10.541-9.148-16.535-8.79c-38.704,2.328-61.652,9.627-73.264,14.647
			c-5.515,2.388-8.985,9.872-8.213,15.833c1.876,14.484,5.064,39.411,5.912,48.081c0.587,5.983,4.879,7.93,10.367,5.483
			c27.892-12.45,75.353-10.764,96.592-9.23c5.994,0.43,9.97-3.835,8.512-9.66C237.015,186.945,228.845,168.115,218.625,150.53z"/>
	</g>
</g>
<g>
</g>
<g>
</g>
<g>
</g>
<g>
</g>
<g>
</g>
<g>
</g>
<g>
</g>
<g>
</g>
<g>
</g>
<g>
</g>
<g>
</g>
<g>
</g>
<g>
</g>
<g>
</g>
<g>
</g>
</svg>
